<svg width="21" height="20" viewBox="0 0 21 20" fill="none" xmlns="http://www.w3.org/2000/svg">
<g id="Group 20">
<rect id="Rectangle 63" width="21" height="20" rx="10" fill="#D9D9D9"/>
<path id="Vector" d="M7.86363 6.0261C7.8635 6.2981 7.76521 6.55891 7.59038 6.75114C7.41554 6.94338 7.17848 7.0513 6.93135 7.05117C6.68422 7.05103 6.44725 6.94285 6.27259 6.75042C6.09793 6.55799 5.99988 6.29707 6 6.02507C6.00012 5.75307 6.09842 5.49226 6.27325 5.30002C6.44809 5.10779 6.68515 4.99986 6.93228 5C7.17941 5.00014 7.41637 5.10832 7.59104 5.30075C7.7657 5.49318 7.86375 5.7541 7.86363 6.0261ZM7.89158 7.81061H6.02795V14.2308H7.89158V7.81061ZM10.8361 7.81061H8.98181V14.2308H10.8175V10.8617C10.8175 8.98491 13.0399 8.81056 13.0399 10.8617V14.2308H14.8802V10.1643C14.8802 7.0004 11.5909 7.11834 10.8175 8.6721L10.8361 7.81061Z" fill="#76A929"/>
</g>
</svg>
